<?xml version='1.0' encoding='utf-8'?>
<svg xmlns="http://www.w3.org/2000/svg" width="91.44mm" height="91.44mm" version="1.1" style="shape-rendering:geometricPrecision; text-rendering:geometricPrecision; image-rendering:optimizeQuality; fill-rule:evenodd; clip-rule:evenodd" viewBox="0 0 9144 9144"> <defs> <style type="text/css">  .fil0 {fill:#F0F0F0} .fil1 {fill:#011627;fill-rule:nonzero}  </style> </defs> <g id="Layer_x0020_1"> <metadata id="CorelCorpID_0Corel-Layer"/> <g id="_2744583888992"> <polygon class="fil0" points="0,0 9144,0 9144,9144 0,9144 "/> <path class="fil1" d="M5178 6085l-1212 0c-47,0 -84,-37 -84,-83 0,-254 -52,-479 -127,-683 -77,-209 -178,-398 -272,-575 -159,-298 -302,-565 -302,-854l0 -16c4,-445 180,-799 441,-1043 260,-244 606,-376 952,-376 3,0 6,0 8,1l5 0c364,3 727,154 989,427 234,245 387,586 387,1007 0,289 -143,556 -301,854 -188,352 -400,748 -400,1258 0,46 -37,83 -84,83zm-1159 302c-46,0 -84,-37 -84,-84 0,-46 38,-84 84,-84l1106 0c46,0 84,38 84,84 0,47 -38,84 -84,84l-1106 0zm385 -1676l336 0 0 -117c0,-47 37,-84 83,-84 47,0 84,37 84,84l0 1324 189 0c21,-509 231,-902 418,-1253 148,-277 282,-527 282,-775 0,-374 -135,-676 -341,-891 -230,-241 -549,-373 -870,-376l-11 0c-304,0 -609,116 -839,331 -229,214 -383,527 -387,921l0 15c0,248 134,498 282,775 98,184 202,379 282,596 73,199 126,415 136,657l189 0 0 -1324c0,-47 37,-84 84,-84 46,0 83,37 83,84l0 117zm336 1207l0 -1039 -336 0 0 1039 336 0zm-623 771c-47,0 -84,-38 -84,-84 0,-46 37,-84 84,-84l901 0c47,0 84,38 84,84 0,46 -37,84 -84,84l-901 0z"/> </g> </g> </svg>